PathFileType	4	(x/y/z)	S09_PSF_T08
DataRate	CameraRate	NumFrames	NumMarkers	Units	OrigDataRate	OrigDataStartFrame	OrigNumFrames
240	240	7	51	mm	240	178	473
Frame#	Time	Sternum			R.Acromium			L.Acromium			Top.Head			R.ASIS			L.ASIS			R.PSIS			L.PSIS			R.Great.Tro			L.Great.Tro			R.Iliac.Crest			L.Iliac.Crest			V.Sacral			R.Thigh.Upper.Post			R.Thigh.Lower.Ant			R.Thigh.Lower.Post			R.Thigh.Upper.Ant			R.Knee.Lat			R.Knee.Med			R.Shank.Upper.Post			R.Shank.Lower.Ant			R.Shank.Lower.Post			R.Shank.Upper.Ant			R.Ankle.Lat			R.Ankle.Med			R.Heel.Upper			R.Heel.Med			R.Heel.Lat			R.Toe.Lat			R.Toe.Med			R.Toe.Tip			L.Thigh.Upper.Post			L.Thigh.Lower.Ant			L.Thigh.Lower.Post			L.Thigh.Upper.Ant			L.Knee.Lat			L.Knee.Med			L.Shank.Upper.Post			L.Shank.Lower.Ant			L.Shank.Lower.Post			L.Shank.Upper.Ant			L.Ankle.Lat			L.Ankle.Med			L.Heel.Upper			L.Heel.Med			L.Heel.Lat			L.Toe.Lat			L.Toe.Med			L.Toe.Tip			Cervical.Spine			Back			
		X1	Y1	Z1	X2	Y2	Z2	X3	Y3	Z3	X4	Y4	Z4	X5	Y5	Z5	X6	Y6	Z6	X7	Y7	Z7	X8	Y8	Z8	X9	Y9	Z9	X10	Y10	Z10	X11	Y11	Z11	X12	Y12	Z12	X13	Y13	Z13	X14	Y14	Z14	X15	Y15	Z15	X16	Y16	Z16	X17	Y17	Z17	X18	Y18	Z18	X19	Y19	Z19	X20	Y20	Z20	X21	Y21	Z21	X22	Y22	Z22	X23	Y23	Z23	X24	Y24	Z24	X25	Y25	Z25	X26	Y26	Z26	X27	Y27	Z27	X28	Y28	Z28	X29	Y29	Z29	X30	Y30	Z30	X31	Y31	Z31	X32	Y32	Z32	X33	Y33	Z33	X34	Y34	Z34	X35	Y35	Z35	X36	Y36	Z36	X37	Y37	Z37	X38	Y38	Z38	X39	Y39	Z39	X40	Y40	Z40	X41	Y41	Z41	X42	Y42	Z42	X43	Y43	Z43	X44	Y44	Z44	X45	Y45	Z45	X46	Y46	Z46	X47	Y47	Z47	X48	Y48	Z48	X49	Y49	Z49	X50	Y50	Z50	X51	Y51	Z51	

178	0.7375	-639.91	1174.3	344.9	-800.24	1412.2	502.93	-790.02	1410.5	185.89	-789.38	1717.3	332.63	-674.11	1011.4	444.46	-698.33	993.16	202.2	-905.54	1017.4	392.16	-904.53	1018.4	301.79	-735.86	926.23	527.41	-788.5	899.14	143.06	-766.99	1086.4	497.26	-810.54	1088.3	175.95	-923.16	982.22	344.42	-662.86	679.38	499.55	-571.39	607.23	443.34	-644.96	591.58	468.15	-594.82	689.5	477.81	-573.95	527.51	438.78	-591.75	519.48	318.43	-625.95	343.61	450.21	-553.87	290.65	431.31	-621.18	267.71	439.12	-564.13	363.07	444.82	-580.36	89.408	416.25	-559.07	104.66	326.86	-642.35	74.922	364.39	-629.81	44.021	335.62	-639.01	44.046	399.71	-478.3	42.314	452.37	-431.23	50.157	345.87	-385.37	70.11	391.3	-888.75	659.79	214.33	-827.24	548.88	196.34	-886.63	570.37	230.01	-827.51	637.06	177.29	-864.67	482.37	206.45	-812.21	476.26	332.85	-983.54	417.79	205.05	-999.5	308.43	211.56	-1036.8	362.33	215.5	-946.45	365.58	202.83	-1163.1	201.55	242.49	-1144.3	189.06	332.39	-1232.1	231.61	301.98	-1238.7	211.64	338.93	-1256.6	212.19	279.03	-1167.5	70.495	224.51	-1128.5	54.179	332.69	-1092.7	38.609	274.6	-871.84	1457.6	352.3	-909.06	1188.1	332.56
179	0.74167	-634.23	1175.4	345.38	-794.72	1413	503.34	-784.78	1411.1	186.33	-784.1	1717.9	332.84	-668.31	1012.4	444.99	-692.52	993.66	202.81	-899.74	1018	392.47	-898.75	1018.6	302.09	-730.05	927.19	527.92	-782.23	899.24	143.69	-761.27	1087.3	497.65	-804.83	1088.5	176.35	-917.26	982.51	344.84	-657.76	679.83	500.17	-566.68	607.33	443.74	-640.28	591.98	468.7	-589.72	689.65	478.29	-569.72	527.44	439.07	-587.39	519.71	318.77	-623.23	343.87	450.48	-551.62	290.34	431.43	-619.13	267.95	439.29	-561.24	362.83	445.01	-580.04	89.404	416.22	-558.81	104.51	326.79	-642.17	75	364.39	-629.73	44.088	335.63	-638.93	44.127	399.72	-478.22	42.225	452.44	-431.12	49.628	345.74	-385.12	69.335	391.23	-880.43	658.82	214.19	-818.04	548.54	195.26	-877.29	569.29	229.41	-819.21	636.78	176.64	-854.99	482.18	205.09	-801.4	475.27	331.29	-973.96	419.12	204.35	-991.16	309.89	210.17	-1027.9	364.17	214.81	-937.52	366.5	201.45	-1155.5	204.46	241.52	-1136.4	191.5	331.39	-1222.2	237.12	301.32	-1229.5	217.7	338.42	-1247.7	218.56	278.6	-1164.6	73.164	224.39	-1125.6	55.901	332.38	-1091.3	38.167	274.23	-866.51	1458.1	352.72	-903.32	1188.6	333.1
180	0.74583	-628.59	1176.5	345.85	-789.2	1413.8	503.73	-779.55	1411.7	186.75	-778.81	1718.5	333.06	-662.55	1013.4	445.55	-686.78	994.16	203.41	-893.97	1018.6	392.79	-893.03	1018.7	302.41	-724.27	928.12	528.43	-776.02	899.35	144.32	-755.59	1088.1	498.06	-799.17	1088.7	176.77	-911.43	982.81	345.27	-652.78	680.23	500.76	-562.14	607.34	444.1	-635.78	592.33	469.19	-584.74	689.72	478.74	-565.65	527.33	439.33	-583.3	519.89	319.07	-620.64	344.11	450.69	-549.47	290.02	431.53	-617.19	268.17	439.41	-558.49	362.58	445.17	-579.74	89.407	416.17	-558.59	104.35	326.7	-642.01	75.063	364.38	-629.67	44.14	335.64	-638.85	44.201	399.72	-478.16	42.162	452.49	-431.03	49.146	345.6	-384.91	68.639	391.15	-872.07	657.84	214	-808.78	548.23	194.14	-867.9	568.21	228.74	-810.88	636.52	175.95	-845.23	482.02	203.68	-790.48	474.32	329.67	-964.23	420.44	203.64	-982.64	311.37	208.77	-1018.7	365.99	214.1	-928.42	367.44	200.05	-1147.6	207.36	240.52	-1128.3	193.92	330.39	-1212	242.58	300.59	-1220	223.7	337.83	-1238.5	224.89	278.09	-1161.5	75.968	224.25	-1122.5	57.761	332.05	-1089.6	37.731	273.82	-861.19	1458.6	353.14	-897.61	1189.1	333.62
181	0.75	-622.98	1177.6	346.3	-783.67	1414.6	504.1	-774.35	1412.3	187.16	-773.53	1719.2	333.28	-656.83	1014.3	446.12	-681.11	994.65	204.01	-888.24	1019.1	393.13	-887.36	1018.9	302.74	-718.53	929.01	528.94	-769.88	899.47	144.96	-749.96	1089	498.49	-793.56	1088.9	177.18	-905.65	983.11	345.72	-647.94	680.58	501.32	-557.75	607.26	444.43	-631.45	592.64	469.63	-579.88	689.7	479.15	-561.74	527.19	439.56	-579.46	520.04	319.32	-618.18	344.33	450.84	-547.43	289.7	431.61	-615.34	268.37	439.47	-555.87	362.32	445.31	-579.47	89.415	416.1	-558.39	104.19	326.59	-641.86	75.113	364.36	-629.61	44.178	335.64	-638.79	44.27	399.71	-478.11	42.121	452.51	-430.95	48.705	345.46	-384.73	68.012	391.06	-863.68	656.88	213.77	-799.47	547.95	192.98	-858.47	567.14	228.01	-802.52	636.28	175.24	-835.38	481.9	202.23	-779.48	473.43	328.02	-954.35	421.75	202.9	-973.95	312.85	207.35	-1009.4	367.81	213.35	-919.16	368.4	198.61	-1139.4	210.23	239.5	-1120	196.31	329.4	-1201.5	247.94	299.79	-1210.1	229.6	337.17	-1228.8	231.14	277.51	-1158	78.892	224.08	-1119	59.748	331.68	-1087.7	37.316	273.39	-855.88	1459	353.55	-891.94	1189.6	334.15
182	0.75417	-617.41	1178.6	346.73	-778.14	1415.4	504.47	-769.17	1412.9	187.56	-768.24	1719.8	333.5	-651.15	1015.3	446.7	-675.51	995.12	204.61	-882.56	1019.7	393.48	-881.75	1019.1	303.1	-712.82	929.88	529.45	-763.8	899.6	145.6	-744.36	1089.9	498.93	-788.01	1089.1	177.61	-899.92	983.43	346.19	-643.23	680.9	501.84	-553.51	607.11	444.72	-627.28	592.9	470.02	-575.14	689.61	479.52	-557.98	527.03	439.76	-575.87	520.14	319.52	-615.85	344.52	450.92	-545.49	289.38	431.67	-613.6	268.56	439.47	-553.38	362.06	445.42	-579.23	89.428	416.02	-558.21	104.02	326.46	-641.73	75.153	364.33	-629.56	44.204	335.63	-638.74	44.336	399.7	-478.07	42.097	452.51	-430.88	48.299	345.32	-384.57	67.446	390.96	-855.27	655.93	213.5	-790.13	547.73	191.8	-849	566.08	227.22	-794.13	636.08	174.5	-825.48	481.82	200.75	-768.42	472.6	326.35	-944.34	423.06	202.14	-965.09	314.34	205.94	-999.89	369.61	212.59	-909.74	369.37	197.15	-1131	213.09	238.47	-1111.5	198.68	328.4	-1190.7	253.19	298.93	-1199.9	235.38	336.43	-1218.8	237.28	276.85	-1154.1	81.918	223.89	-1115.3	61.848	331.28	-1085.5	36.939	272.91	-850.58	1459.5	353.95	-886.3	1190.2	334.67
183	0.75833	-611.88	1179.7	347.13	-772.6	1416.2	504.82	-764.02	1413.5	187.94	-762.96	1720.5	333.73	-645.51	1016.2	447.29	-669.99	995.58	205.19	-876.91	1020.3	393.86	-876.2	1019.3	303.48	-707.14	930.71	529.97	-757.79	899.75	146.24	-738.8	1090.7	499.39	-782.52	1089.3	178.04	-894.25	983.76	346.7	-638.64	681.17	502.33	-549.42	606.89	444.96	-623.26	593.13	470.36	-570.52	689.45	479.84	-554.37	526.83	439.94	-572.53	520.2	319.68	-613.63	344.7	450.94	-543.66	289.05	431.72	-611.94	268.72	439.43	-551.01	361.78	445.51	-579	89.444	415.92	-558.05	103.86	326.32	-641.61	75.185	364.29	-629.51	44.222	335.61	-638.7	44.4	399.68	-478.04	42.086	452.48	-430.82	47.921	345.17	-384.43	66.934	390.86	-846.85	655	213.2	-780.76	547.55	190.59	-839.5	565.05	226.37	-785.73	635.92	173.75	-815.51	481.8	199.25	-757.32	471.86	324.66	-934.21	424.35	201.36	-956.07	315.83	204.52	-990.23	371.4	211.82	-900.19	370.36	195.68	-1122.3	215.91	237.43	-1102.7	201.01	327.42	-1179.6	258.29	298.01	-1189.5	241	335.63	-1208.5	243.27	276.12	-1149.9	85.024	223.66	-1111.2	64.042	330.83	-1083	36.617	272.41	-845.28	1460	354.35	-880.69	1190.7	335.2
184	0.7625	-606.38	1180.7	347.5	-767.05	1417	505.17	-758.89	1414	188.3	-757.67	1721.1	333.97	-639.9	1017.1	447.88	-664.54	996.03	205.76	-871.3	1020.9	394.27	-870.71	1019.5	303.89	-701.48	931.51	530.49	-751.86	899.91	146.89	-733.26	1091.6	499.87	-777.08	1089.5	178.48	-888.63	984.1	347.23	-634.17	681.42	502.78	-545.48	606.61	445.18	-619.4	593.32	470.66	-566.02	689.22	480.12	-550.9	526.6	440.09	-569.41	520.21	319.8	-611.54	344.85	450.91	-541.92	288.72	431.76	-610.38	268.87	439.35	-548.77	361.5	445.58	-578.79	89.463	415.81	-557.9	103.69	326.16	-641.49	75.21	364.24	-629.47	44.232	335.59	-638.65	44.466	399.65	-478.01	42.086	452.44	-430.77	47.569	345.01	-384.31	66.469	390.74	-838.42	654.11	212.87	-771.36	547.43	189.38	-829.99	564.06	225.48	-777.32	635.81	172.99	-805.49	481.84	197.74	-746.18	471.21	322.97	-923.98	425.65	200.56	-946.9	317.32	203.12	-980.42	373.16	211.04	-890.5	371.37	194.21	-1113.4	218.7	236.4	-1093.9	203.32	326.45	-1168.3	263.22	297.04	-1178.8	246.44	334.76	-1198	249.08	275.32	-1145.2	88.188	223.38	-1106.7	66.31	330.34	-1080	36.37	271.87	-839.99	1460.5	354.75	-875.12	1191.2	335.73
